# xmcd
#
# Track frame offsets: 
#        150
#        19727
#        41605
#        60140
#        85377
#        103143
#        124343
#        144604
#        162130
#        183667
#        203531
#        221918
#        252376
#        269564
#
# Disc length: 3854 seconds
#
# Revision: 5
# Processed by: cddbd v1.5.2PL0 Copyright (c) Steve Scherf et al.
# Submitted via: ExactAudioCopy v1.0b3
#
DISCID=cf0f0c0e
DTITLE=Gilberto Santa Rosa - Autentico
DYEAR=2004
DGENRE=Salsa
TTITLE0=Piedras Y Flores
TTITLE1=Sombra Loca
TTITLE2=Traigo De Todo
TTITLE3=Lo Que Arraso
TTITLE4=Sere Tu Amigo
TTITLE5=Enseame A Vivir Sin Ti [Version Salsa]
TTITLE6=Rincon De Mis Ansias
TTITLE7=No Me Mires A Los Ojos
TTITLE8=Y Si No Te Vuelvo A Ver
TTITLE9=Dime Lo Que Quieres
TTITLE10=Esame A Vivir Sin Ti [Version Bolero]
TTITLE11=Son De La Madrugada
TTITLE12=Sigue Ella Boba
TTITLE13=Juan Manuel
EXTD=
EXTT0=
EXTT1=
EXTT2=
EXTT3=
EXTT4=
EXTT5=
EXTT6=
EXTT7=
EXTT8=
EXTT9=
EXTT10=
EXTT11=
EXTT12=
EXTT13=
PLAYORDER=
